<mxfile host="app.diagrams.net" modified="2023-12-02T17:54:55.966Z" agent="Mozilla/5.0 (Windows NT 10.0; Win64; x64) AppleWebKit/537.36 (KHTML, like Gecko) Chrome/119.0.0.0 Safari/537.36" etag="g1tCcpaAwvAmCrlwvnHi" version="22.1.5" type="device">
  <diagram name="Page-1" id="sEYugpfBCGp_AZUjbzws">
    <mxGraphModel dx="2048" dy="2038" grid="1" gridSize="10" guides="1" tooltips="1" connect="1" arrows="1" fold="1" page="1" pageScale="1" pageWidth="850" pageHeight="1100" math="0" shadow="0">
      <root>
        <mxCell id="0" />
        <mxCell id="1" parent="0" />
        <mxCell id="8CpBQVgdeGT6YSg92gqI-2" value="Employee&amp;nbsp;" style="whiteSpace=wrap;html=1;align=center;" parent="1" vertex="1">
          <mxGeometry x="310" y="120" width="100" height="40" as="geometry" />
        </mxCell>
        <mxCell id="8CpBQVgdeGT6YSg92gqI-7" value="Job&amp;nbsp;" style="whiteSpace=wrap;html=1;align=center;" parent="1" vertex="1">
          <mxGeometry x="-225" y="470" width="100" height="40" as="geometry" />
        </mxCell>
        <mxCell id="8CpBQVgdeGT6YSg92gqI-10" value="&lt;u&gt;employee ID&lt;/u&gt;" style="ellipse;whiteSpace=wrap;html=1;align=center;" parent="1" vertex="1">
          <mxGeometry x="190" y="60" width="100" height="40" as="geometry" />
        </mxCell>
        <mxCell id="8CpBQVgdeGT6YSg92gqI-11" value="" style="endArrow=none;html=1;rounded=0;entryX=0.25;entryY=0;entryDx=0;entryDy=0;" parent="1" target="8CpBQVgdeGT6YSg92gqI-2" edge="1">
          <mxGeometry relative="1" as="geometry">
            <mxPoint x="280" y="90" as="sourcePoint" />
            <mxPoint x="360" y="210" as="targetPoint" />
          </mxGeometry>
        </mxCell>
        <mxCell id="8CpBQVgdeGT6YSg92gqI-15" value="job id" style="ellipse;whiteSpace=wrap;html=1;align=center;" parent="1" vertex="1">
          <mxGeometry x="410" y="20" width="100" height="40" as="geometry" />
        </mxCell>
        <mxCell id="8CpBQVgdeGT6YSg92gqI-16" value="employee email" style="ellipse;whiteSpace=wrap;html=1;align=center;" parent="1" vertex="1">
          <mxGeometry x="420" y="70" width="100" height="40" as="geometry" />
        </mxCell>
        <mxCell id="8CpBQVgdeGT6YSg92gqI-17" value="department id" style="ellipse;whiteSpace=wrap;html=1;align=center;" parent="1" vertex="1">
          <mxGeometry x="250" y="-40" width="100" height="40" as="geometry" />
        </mxCell>
        <mxCell id="8CpBQVgdeGT6YSg92gqI-18" value="employee name" style="ellipse;whiteSpace=wrap;html=1;align=center;" parent="1" vertex="1">
          <mxGeometry x="220" y="10" width="100" height="40" as="geometry" />
        </mxCell>
        <mxCell id="8CpBQVgdeGT6YSg92gqI-19" value="" style="endArrow=none;html=1;rounded=0;exitX=0.664;exitY=0.002;exitDx=0;exitDy=0;exitPerimeter=0;" parent="1" source="8CpBQVgdeGT6YSg92gqI-2" target="8CpBQVgdeGT6YSg92gqI-16" edge="1">
          <mxGeometry relative="1" as="geometry">
            <mxPoint x="300" y="100" as="sourcePoint" />
            <mxPoint x="460" y="100" as="targetPoint" />
          </mxGeometry>
        </mxCell>
        <mxCell id="8CpBQVgdeGT6YSg92gqI-22" value="" style="endArrow=none;html=1;rounded=0;entryX=1;entryY=1;entryDx=0;entryDy=0;exitX=0.25;exitY=0;exitDx=0;exitDy=0;" parent="1" source="8CpBQVgdeGT6YSg92gqI-2" target="8CpBQVgdeGT6YSg92gqI-17" edge="1">
          <mxGeometry relative="1" as="geometry">
            <mxPoint x="300" y="210" as="sourcePoint" />
            <mxPoint x="460" y="210" as="targetPoint" />
          </mxGeometry>
        </mxCell>
        <mxCell id="8CpBQVgdeGT6YSg92gqI-24" value="" style="endArrow=none;html=1;rounded=0;entryX=1;entryY=1;entryDx=0;entryDy=0;exitX=0.25;exitY=0;exitDx=0;exitDy=0;" parent="1" source="8CpBQVgdeGT6YSg92gqI-2" target="8CpBQVgdeGT6YSg92gqI-18" edge="1">
          <mxGeometry relative="1" as="geometry">
            <mxPoint x="330" y="130" as="sourcePoint" />
            <mxPoint x="460" y="210" as="targetPoint" />
          </mxGeometry>
        </mxCell>
        <mxCell id="8CpBQVgdeGT6YSg92gqI-25" value="&lt;u&gt;job ID&lt;/u&gt;" style="ellipse;whiteSpace=wrap;html=1;align=center;" parent="1" vertex="1">
          <mxGeometry x="-290" y="420" width="100" height="40" as="geometry" />
        </mxCell>
        <mxCell id="8CpBQVgdeGT6YSg92gqI-26" value="job title" style="ellipse;whiteSpace=wrap;html=1;align=center;" parent="1" vertex="1">
          <mxGeometry x="-180" y="400" width="100" height="40" as="geometry" />
        </mxCell>
        <mxCell id="8CpBQVgdeGT6YSg92gqI-32" value="" style="endArrow=none;html=1;rounded=0;entryX=0;entryY=1;entryDx=0;entryDy=0;" parent="1" source="8CpBQVgdeGT6YSg92gqI-2" target="8CpBQVgdeGT6YSg92gqI-15" edge="1">
          <mxGeometry relative="1" as="geometry">
            <mxPoint x="350" y="260" as="sourcePoint" />
            <mxPoint x="510" y="260" as="targetPoint" />
          </mxGeometry>
        </mxCell>
        <mxCell id="8CpBQVgdeGT6YSg92gqI-33" value="Leave" style="whiteSpace=wrap;html=1;align=center;" parent="1" vertex="1">
          <mxGeometry x="-200" y="140" width="100" height="30" as="geometry" />
        </mxCell>
        <mxCell id="8CpBQVgdeGT6YSg92gqI-34" value="&lt;div&gt;&lt;u&gt;:Leave_ID&lt;/u&gt;&lt;/div&gt;" style="ellipse;whiteSpace=wrap;html=1;align=center;" parent="1" vertex="1">
          <mxGeometry x="-310" y="90" width="100" height="40" as="geometry" />
        </mxCell>
        <mxCell id="8CpBQVgdeGT6YSg92gqI-35" value="" style="endArrow=none;html=1;rounded=0;exitX=1;exitY=1;exitDx=0;exitDy=0;entryX=0.25;entryY=0;entryDx=0;entryDy=0;" parent="1" source="8CpBQVgdeGT6YSg92gqI-34" target="8CpBQVgdeGT6YSg92gqI-33" edge="1">
          <mxGeometry relative="1" as="geometry">
            <mxPoint x="-250" y="120" as="sourcePoint" />
            <mxPoint x="-80" y="190" as="targetPoint" />
          </mxGeometry>
        </mxCell>
        <mxCell id="8CpBQVgdeGT6YSg92gqI-36" value="end_date" style="ellipse;whiteSpace=wrap;html=1;align=center;" parent="1" vertex="1">
          <mxGeometry x="-90" y="50" width="100" height="40" as="geometry" />
        </mxCell>
        <mxCell id="8CpBQVgdeGT6YSg92gqI-39" value="leave_type" style="ellipse;whiteSpace=wrap;html=1;align=center;" parent="1" vertex="1">
          <mxGeometry x="-220" y="-30" width="100" height="40" as="geometry" />
        </mxCell>
        <mxCell id="8CpBQVgdeGT6YSg92gqI-40" value="Employee_ID" style="ellipse;whiteSpace=wrap;html=1;align=center;" parent="1" vertex="1">
          <mxGeometry x="-290" y="30" width="100" height="40" as="geometry" />
        </mxCell>
        <mxCell id="8CpBQVgdeGT6YSg92gqI-42" value="" style="endArrow=none;html=1;rounded=0;entryX=0.5;entryY=1;entryDx=0;entryDy=0;exitX=0.372;exitY=0.048;exitDx=0;exitDy=0;exitPerimeter=0;" parent="1" source="8CpBQVgdeGT6YSg92gqI-33" target="8CpBQVgdeGT6YSg92gqI-39" edge="1">
          <mxGeometry relative="1" as="geometry">
            <mxPoint x="-170" y="130" as="sourcePoint" />
            <mxPoint x="20" y="190" as="targetPoint" />
          </mxGeometry>
        </mxCell>
        <mxCell id="8CpBQVgdeGT6YSg92gqI-43" value="" style="endArrow=none;html=1;rounded=0;entryX=0;entryY=0.5;entryDx=0;entryDy=0;exitX=0.639;exitY=0.011;exitDx=0;exitDy=0;exitPerimeter=0;" parent="1" source="8CpBQVgdeGT6YSg92gqI-33" target="8CpBQVgdeGT6YSg92gqI-36" edge="1">
          <mxGeometry relative="1" as="geometry">
            <mxPoint x="-130" y="130" as="sourcePoint" />
            <mxPoint x="-97.40000000000009" y="17.59999999999991" as="targetPoint" />
          </mxGeometry>
        </mxCell>
        <mxCell id="8CpBQVgdeGT6YSg92gqI-44" value="" style="endArrow=none;html=1;rounded=0;exitX=0.25;exitY=0;exitDx=0;exitDy=0;" parent="1" source="8CpBQVgdeGT6YSg92gqI-33" target="8CpBQVgdeGT6YSg92gqI-40" edge="1">
          <mxGeometry relative="1" as="geometry">
            <mxPoint x="-110" y="110" as="sourcePoint" />
            <mxPoint x="-214.64466094067257" y="64.14213562373106" as="targetPoint" />
          </mxGeometry>
        </mxCell>
        <mxCell id="8CpBQVgdeGT6YSg92gqI-48" value="" style="endArrow=none;html=1;rounded=0;exitX=0.5;exitY=1;exitDx=0;exitDy=0;" parent="1" source="8CpBQVgdeGT6YSg92gqI-26" target="8CpBQVgdeGT6YSg92gqI-7" edge="1">
          <mxGeometry relative="1" as="geometry">
            <mxPoint x="-140" y="390" as="sourcePoint" />
            <mxPoint x="20" y="390" as="targetPoint" />
          </mxGeometry>
        </mxCell>
        <mxCell id="8CpBQVgdeGT6YSg92gqI-53" value="" style="endArrow=none;html=1;rounded=0;entryX=0.5;entryY=0;entryDx=0;entryDy=0;" parent="1" source="8CpBQVgdeGT6YSg92gqI-25" target="8CpBQVgdeGT6YSg92gqI-7" edge="1">
          <mxGeometry relative="1" as="geometry">
            <mxPoint x="-250" y="450" as="sourcePoint" />
            <mxPoint x="-90" y="450" as="targetPoint" />
          </mxGeometry>
        </mxCell>
        <mxCell id="8CpBQVgdeGT6YSg92gqI-56" value="Department&amp;nbsp;" style="whiteSpace=wrap;html=1;align=center;" parent="1" vertex="1">
          <mxGeometry x="440" y="560" width="100" height="40" as="geometry" />
        </mxCell>
        <mxCell id="8CpBQVgdeGT6YSg92gqI-58" value="d&lt;u&gt;epartment ID&lt;/u&gt;" style="ellipse;whiteSpace=wrap;html=1;align=center;" parent="1" vertex="1">
          <mxGeometry x="375" y="475" width="100" height="40" as="geometry" />
        </mxCell>
        <mxCell id="8CpBQVgdeGT6YSg92gqI-60" value="Department Name" style="ellipse;whiteSpace=wrap;html=1;align=center;" parent="1" vertex="1">
          <mxGeometry x="495" y="460" width="110" height="40" as="geometry" />
        </mxCell>
        <mxCell id="8CpBQVgdeGT6YSg92gqI-61" value="" style="endArrow=none;html=1;rounded=0;exitX=0;exitY=1;exitDx=0;exitDy=0;entryX=0.5;entryY=0;entryDx=0;entryDy=0;" parent="1" source="8CpBQVgdeGT6YSg92gqI-60" target="8CpBQVgdeGT6YSg92gqI-56" edge="1">
          <mxGeometry relative="1" as="geometry">
            <mxPoint x="535" y="510" as="sourcePoint" />
            <mxPoint x="615" y="250" as="targetPoint" />
          </mxGeometry>
        </mxCell>
        <mxCell id="8CpBQVgdeGT6YSg92gqI-63" value="" style="endArrow=none;html=1;rounded=0;entryX=0.5;entryY=0;entryDx=0;entryDy=0;exitX=0.758;exitY=1.112;exitDx=0;exitDy=0;exitPerimeter=0;" parent="1" source="8CpBQVgdeGT6YSg92gqI-58" target="8CpBQVgdeGT6YSg92gqI-56" edge="1">
          <mxGeometry relative="1" as="geometry">
            <mxPoint x="464.99999999999227" y="525.9999999999955" as="sourcePoint" />
            <mxPoint x="595" y="530" as="targetPoint" />
          </mxGeometry>
        </mxCell>
        <mxCell id="8CpBQVgdeGT6YSg92gqI-74" value="Attendance" style="whiteSpace=wrap;html=1;align=center;" parent="1" vertex="1">
          <mxGeometry x="690" y="380" width="100" height="40" as="geometry" />
        </mxCell>
        <mxCell id="8CpBQVgdeGT6YSg92gqI-76" value="&lt;u&gt;attendance_ID&lt;/u&gt;" style="ellipse;whiteSpace=wrap;html=1;align=center;" parent="1" vertex="1">
          <mxGeometry x="600" y="330" width="100" height="40" as="geometry" />
        </mxCell>
        <mxCell id="8CpBQVgdeGT6YSg92gqI-77" value="employee_ID" style="ellipse;whiteSpace=wrap;html=1;align=center;" parent="1" vertex="1">
          <mxGeometry x="640" y="280" width="100" height="40" as="geometry" />
        </mxCell>
        <mxCell id="8CpBQVgdeGT6YSg92gqI-80" value="" style="endArrow=none;html=1;rounded=0;exitX=1;exitY=1;exitDx=0;exitDy=0;" parent="1" source="8CpBQVgdeGT6YSg92gqI-77" edge="1">
          <mxGeometry relative="1" as="geometry">
            <mxPoint x="770" y="300" as="sourcePoint" />
            <mxPoint x="732.753342454826" y="380" as="targetPoint" />
          </mxGeometry>
        </mxCell>
        <mxCell id="8CpBQVgdeGT6YSg92gqI-81" value="" style="endArrow=none;html=1;rounded=0;entryX=0.5;entryY=0;entryDx=0;entryDy=0;exitX=1;exitY=0.5;exitDx=0;exitDy=0;" parent="1" source="8CpBQVgdeGT6YSg92gqI-76" edge="1">
          <mxGeometry relative="1" as="geometry">
            <mxPoint x="702.746526920886" y="365.11378165579345" as="sourcePoint" />
            <mxPoint x="735" y="380" as="targetPoint" />
          </mxGeometry>
        </mxCell>
        <mxCell id="8CpBQVgdeGT6YSg92gqI-85" value="Manager&amp;nbsp;" style="whiteSpace=wrap;html=1;align=center;" parent="1" vertex="1">
          <mxGeometry x="45" y="660" width="100" height="40" as="geometry" />
        </mxCell>
        <mxCell id="8CpBQVgdeGT6YSg92gqI-86" value="&lt;u&gt;manager&amp;nbsp; ID&lt;/u&gt;" style="ellipse;whiteSpace=wrap;html=1;align=center;" parent="1" vertex="1">
          <mxGeometry x="-20" y="600" width="100" height="40" as="geometry" />
        </mxCell>
        <mxCell id="8CpBQVgdeGT6YSg92gqI-87" value="manager department" style="ellipse;whiteSpace=wrap;html=1;align=center;" parent="1" vertex="1">
          <mxGeometry x="130" y="600" width="100" height="40" as="geometry" />
        </mxCell>
        <mxCell id="8CpBQVgdeGT6YSg92gqI-88" value="" style="endArrow=none;html=1;rounded=0;exitX=0.027;exitY=0.35;exitDx=0;exitDy=0;exitPerimeter=0;entryX=0.5;entryY=0;entryDx=0;entryDy=0;" parent="1" source="8CpBQVgdeGT6YSg92gqI-87" target="8CpBQVgdeGT6YSg92gqI-85" edge="1">
          <mxGeometry relative="1" as="geometry">
            <mxPoint x="120" y="610" as="sourcePoint" />
            <mxPoint x="200" y="350" as="targetPoint" />
          </mxGeometry>
        </mxCell>
        <mxCell id="8CpBQVgdeGT6YSg92gqI-89" value="" style="endArrow=none;html=1;rounded=0;entryX=0.5;entryY=0;entryDx=0;entryDy=0;" parent="1" source="8CpBQVgdeGT6YSg92gqI-86" target="8CpBQVgdeGT6YSg92gqI-85" edge="1">
          <mxGeometry relative="1" as="geometry">
            <mxPoint x="20" y="630" as="sourcePoint" />
            <mxPoint x="180" y="630" as="targetPoint" />
          </mxGeometry>
        </mxCell>
        <mxCell id="8CpBQVgdeGT6YSg92gqI-90" value="manager name" style="ellipse;whiteSpace=wrap;html=1;align=center;" parent="1" vertex="1">
          <mxGeometry x="45" y="550" width="100" height="40" as="geometry" />
        </mxCell>
        <mxCell id="8CpBQVgdeGT6YSg92gqI-91" value="" style="endArrow=none;html=1;rounded=0;exitX=0.5;exitY=1;exitDx=0;exitDy=0;" parent="1" source="8CpBQVgdeGT6YSg92gqI-90" target="8CpBQVgdeGT6YSg92gqI-85" edge="1">
          <mxGeometry relative="1" as="geometry">
            <mxPoint y="650" as="sourcePoint" />
            <mxPoint x="160" y="650" as="targetPoint" />
          </mxGeometry>
        </mxCell>
        <mxCell id="8CpBQVgdeGT6YSg92gqI-118" style="edgeStyle=orthogonalEdgeStyle;rounded=0;orthogonalLoop=1;jettySize=auto;html=1;entryX=1;entryY=1;entryDx=0;entryDy=0;" parent="1" target="8CpBQVgdeGT6YSg92gqI-2" edge="1">
          <mxGeometry relative="1" as="geometry">
            <mxPoint x="410" y="160" as="sourcePoint" />
          </mxGeometry>
        </mxCell>
        <mxCell id="8CpBQVgdeGT6YSg92gqI-126" value="works in" style="shape=rhombus;perimeter=rhombusPerimeter;whiteSpace=wrap;html=1;align=center;" parent="1" vertex="1">
          <mxGeometry x="280" y="360" width="120" height="60" as="geometry" />
        </mxCell>
        <mxCell id="_dLto8AkK9XteF-ZZWOW-3" value="Request" style="shape=rhombus;perimeter=rhombusPerimeter;whiteSpace=wrap;html=1;align=center;" parent="1" vertex="1">
          <mxGeometry x="-40" y="310" width="120" height="60" as="geometry" />
        </mxCell>
        <mxCell id="UBX747-r-LcvA80OT4Fp-1" value="salary" style="ellipse;whiteSpace=wrap;html=1;align=center;" parent="1" vertex="1">
          <mxGeometry x="355" y="-30" width="100" height="40" as="geometry" />
        </mxCell>
        <mxCell id="UBX747-r-LcvA80OT4Fp-3" value="" style="endArrow=none;html=1;rounded=0;entryX=0.5;entryY=1;entryDx=0;entryDy=0;exitX=0.5;exitY=0;exitDx=0;exitDy=0;" parent="1" source="8CpBQVgdeGT6YSg92gqI-2" target="UBX747-r-LcvA80OT4Fp-1" edge="1">
          <mxGeometry relative="1" as="geometry">
            <mxPoint x="350" y="90" as="sourcePoint" />
            <mxPoint x="370" y="-24" as="targetPoint" />
          </mxGeometry>
        </mxCell>
        <mxCell id="UBX747-r-LcvA80OT4Fp-4" value="start_date" style="ellipse;whiteSpace=wrap;html=1;align=center;" parent="1" vertex="1">
          <mxGeometry x="-140" y="10" width="100" height="40" as="geometry" />
        </mxCell>
        <mxCell id="UBX747-r-LcvA80OT4Fp-5" value="" style="endArrow=none;html=1;rounded=0;exitX=0.5;exitY=0;exitDx=0;exitDy=0;entryX=0;entryY=1;entryDx=0;entryDy=0;" parent="1" source="8CpBQVgdeGT6YSg92gqI-33" target="UBX747-r-LcvA80OT4Fp-4" edge="1">
          <mxGeometry relative="1" as="geometry">
            <mxPoint x="-150.59" y="60" as="sourcePoint" />
            <mxPoint x="-150" y="-50" as="targetPoint" />
          </mxGeometry>
        </mxCell>
        <mxCell id="UBX747-r-LcvA80OT4Fp-13" value="&lt;div&gt;1&lt;/div&gt;&lt;div&gt;&lt;br&gt;&lt;/div&gt;" style="text;html=1;strokeColor=none;fillColor=none;align=center;verticalAlign=middle;whiteSpace=wrap;rounded=0;" parent="1" vertex="1">
          <mxGeometry x="130" y="220" width="60" height="10" as="geometry" />
        </mxCell>
        <mxCell id="UBX747-r-LcvA80OT4Fp-14" value="Has" style="shape=rhombus;perimeter=rhombusPerimeter;whiteSpace=wrap;html=1;align=center;" parent="1" vertex="1">
          <mxGeometry x="70" y="230" width="120" height="60" as="geometry" />
        </mxCell>
        <mxCell id="UBX747-r-LcvA80OT4Fp-15" value="" style="shape=link;html=1;rounded=0;entryX=0;entryY=0.5;entryDx=0;entryDy=0;exitX=0.5;exitY=0;exitDx=0;exitDy=0;" parent="1" source="UBX747-r-LcvA80OT4Fp-14" target="8CpBQVgdeGT6YSg92gqI-2" edge="1">
          <mxGeometry width="100" relative="1" as="geometry">
            <mxPoint x="130" y="140" as="sourcePoint" />
            <mxPoint x="220" y="144.41" as="targetPoint" />
            <Array as="points">
              <mxPoint x="130" y="140" />
            </Array>
          </mxGeometry>
        </mxCell>
        <mxCell id="UBX747-r-LcvA80OT4Fp-16" value="" style="shape=link;html=1;rounded=0;exitX=1;exitY=0.5;exitDx=0;exitDy=0;entryX=0.5;entryY=1;entryDx=0;entryDy=0;" parent="1" source="8CpBQVgdeGT6YSg92gqI-7" target="UBX747-r-LcvA80OT4Fp-14" edge="1">
          <mxGeometry width="100" relative="1" as="geometry">
            <mxPoint x="-110" y="488.82" as="sourcePoint" />
            <mxPoint x="-10" y="488.82" as="targetPoint" />
            <Array as="points">
              <mxPoint x="130" y="490" />
            </Array>
          </mxGeometry>
        </mxCell>
        <mxCell id="UBX747-r-LcvA80OT4Fp-18" value="&lt;div&gt;1&lt;/div&gt;&lt;div&gt;&lt;br&gt;&lt;/div&gt;" style="text;html=1;strokeColor=none;fillColor=none;align=center;verticalAlign=middle;whiteSpace=wrap;rounded=0;" parent="1" vertex="1">
          <mxGeometry x="130" y="300" width="60" height="10" as="geometry" />
        </mxCell>
        <mxCell id="UBX747-r-LcvA80OT4Fp-19" value="" style="shape=link;html=1;rounded=0;entryX=0.5;entryY=0;entryDx=0;entryDy=0;exitX=0.5;exitY=1;exitDx=0;exitDy=0;" parent="1" source="8CpBQVgdeGT6YSg92gqI-2" target="UBX747-r-LcvA80OT4Fp-35" edge="1">
          <mxGeometry width="100" relative="1" as="geometry">
            <mxPoint x="360" y="300" as="sourcePoint" />
            <mxPoint x="460" y="300" as="targetPoint" />
            <Array as="points">
              <mxPoint x="360" y="240" />
              <mxPoint x="515" y="240" />
            </Array>
          </mxGeometry>
        </mxCell>
        <mxCell id="UBX747-r-LcvA80OT4Fp-25" value="" style="shape=link;html=1;rounded=0;width=4.117647058823529;entryX=0.5;entryY=1;entryDx=0;entryDy=0;exitX=0;exitY=0.5;exitDx=0;exitDy=0;" parent="1" source="8CpBQVgdeGT6YSg92gqI-74" target="UBX747-r-LcvA80OT4Fp-35" edge="1">
          <mxGeometry width="100" relative="1" as="geometry">
            <mxPoint x="650" y="550" as="sourcePoint" />
            <mxPoint x="640" y="689.41" as="targetPoint" />
            <Array as="points">
              <mxPoint x="515" y="400" />
            </Array>
          </mxGeometry>
        </mxCell>
        <mxCell id="UBX747-r-LcvA80OT4Fp-30" value="" style="html=1;rounded=0;exitX=0.5;exitY=0;exitDx=0;exitDy=0;strokeColor=default;shadow=0;strokeWidth=1;endArrow=none;endFill=0;shape=link;" parent="1" source="8CpBQVgdeGT6YSg92gqI-126" edge="1">
          <mxGeometry width="100" relative="1" as="geometry">
            <mxPoint x="80" y="590" as="sourcePoint" />
            <mxPoint x="340" y="160" as="targetPoint" />
            <Array as="points" />
          </mxGeometry>
        </mxCell>
        <mxCell id="UBX747-r-LcvA80OT4Fp-31" value="N&lt;div&gt;&lt;br&gt;&lt;/div&gt;" style="text;html=1;strokeColor=none;fillColor=none;align=center;verticalAlign=middle;whiteSpace=wrap;rounded=0;" parent="1" vertex="1">
          <mxGeometry x="350" y="330" width="40" height="30" as="geometry" />
        </mxCell>
        <mxCell id="UBX747-r-LcvA80OT4Fp-32" value="" style="shape=link;html=1;rounded=0;entryX=0;entryY=0.5;entryDx=0;entryDy=0;exitX=0.5;exitY=1;exitDx=0;exitDy=0;" parent="1" source="8CpBQVgdeGT6YSg92gqI-33" target="_dLto8AkK9XteF-ZZWOW-3" edge="1">
          <mxGeometry width="100" relative="1" as="geometry">
            <mxPoint x="-150" y="319.40999999999997" as="sourcePoint" />
            <mxPoint x="-50" y="319.40999999999997" as="targetPoint" />
            <Array as="points">
              <mxPoint x="-150" y="340" />
            </Array>
          </mxGeometry>
        </mxCell>
        <mxCell id="UBX747-r-LcvA80OT4Fp-33" value="N&lt;div&gt;&lt;br&gt;&lt;/div&gt;" style="text;html=1;strokeColor=none;fillColor=none;align=center;verticalAlign=middle;whiteSpace=wrap;rounded=0;" parent="1" vertex="1">
          <mxGeometry x="-80" y="310" width="40" height="10" as="geometry" />
        </mxCell>
        <mxCell id="UBX747-r-LcvA80OT4Fp-35" value="Records" style="shape=rhombus;perimeter=rhombusPerimeter;whiteSpace=wrap;html=1;align=center;" parent="1" vertex="1">
          <mxGeometry x="470" y="290" width="90" height="60" as="geometry" />
        </mxCell>
        <mxCell id="RsNDmuE6RZyaPZhk6_rx-1" value="&lt;div&gt;Login Details &lt;br&gt;&lt;/div&gt;" style="shape=ext;margin=3;double=1;whiteSpace=wrap;html=1;align=center;" parent="1" vertex="1">
          <mxGeometry x="810" y="120" width="100" height="40" as="geometry" />
        </mxCell>
        <mxCell id="RsNDmuE6RZyaPZhk6_rx-2" value="Login" style="shape=rhombus;double=1;perimeter=rhombusPerimeter;whiteSpace=wrap;html=1;align=center;" parent="1" vertex="1">
          <mxGeometry x="550" y="110" width="120" height="60" as="geometry" />
        </mxCell>
        <mxCell id="RsNDmuE6RZyaPZhk6_rx-3" value="" style="shape=link;html=1;rounded=0;entryX=0;entryY=0.5;entryDx=0;entryDy=0;exitX=1;exitY=0.5;exitDx=0;exitDy=0;" parent="1" source="8CpBQVgdeGT6YSg92gqI-2" target="RsNDmuE6RZyaPZhk6_rx-2" edge="1">
          <mxGeometry width="100" relative="1" as="geometry">
            <mxPoint x="420" y="140" as="sourcePoint" />
            <mxPoint x="520" y="140" as="targetPoint" />
          </mxGeometry>
        </mxCell>
        <mxCell id="RsNDmuE6RZyaPZhk6_rx-4" value="1" style="text;html=1;strokeColor=none;fillColor=none;align=center;verticalAlign=middle;whiteSpace=wrap;rounded=0;" parent="1" vertex="1">
          <mxGeometry x="510" y="150" width="40" height="20" as="geometry" />
        </mxCell>
        <mxCell id="RsNDmuE6RZyaPZhk6_rx-5" value="" style="shape=link;html=1;rounded=0;entryX=0;entryY=0.5;entryDx=0;entryDy=0;exitX=1;exitY=0.5;exitDx=0;exitDy=0;" parent="1" source="RsNDmuE6RZyaPZhk6_rx-2" target="RsNDmuE6RZyaPZhk6_rx-1" edge="1">
          <mxGeometry width="100" relative="1" as="geometry">
            <mxPoint x="690" y="140" as="sourcePoint" />
            <mxPoint x="790" y="140" as="targetPoint" />
          </mxGeometry>
        </mxCell>
        <mxCell id="RsNDmuE6RZyaPZhk6_rx-6" value="1" style="text;html=1;strokeColor=none;fillColor=none;align=center;verticalAlign=middle;whiteSpace=wrap;rounded=0;" parent="1" vertex="1">
          <mxGeometry x="680" y="150" width="40" height="20" as="geometry" />
        </mxCell>
        <mxCell id="RsNDmuE6RZyaPZhk6_rx-7" value="&lt;span style=&quot;border-bottom: 1px dotted&quot;&gt;Username&lt;br&gt;&lt;/span&gt;" style="ellipse;whiteSpace=wrap;html=1;align=center;" parent="1" vertex="1">
          <mxGeometry x="730" y="60" width="100" height="40" as="geometry" />
        </mxCell>
        <mxCell id="RsNDmuE6RZyaPZhk6_rx-9" value="" style="endArrow=none;html=1;rounded=0;exitX=0.25;exitY=0;exitDx=0;exitDy=0;entryX=0.5;entryY=1;entryDx=0;entryDy=0;" parent="1" source="RsNDmuE6RZyaPZhk6_rx-1" target="RsNDmuE6RZyaPZhk6_rx-7" edge="1">
          <mxGeometry width="50" height="50" relative="1" as="geometry">
            <mxPoint x="730" y="115" as="sourcePoint" />
            <mxPoint x="780" y="65" as="targetPoint" />
          </mxGeometry>
        </mxCell>
        <mxCell id="RsNDmuE6RZyaPZhk6_rx-11" value="Password" style="ellipse;whiteSpace=wrap;html=1;align=center;" parent="1" vertex="1">
          <mxGeometry x="860" y="60" width="100" height="40" as="geometry" />
        </mxCell>
        <mxCell id="RsNDmuE6RZyaPZhk6_rx-12" value="" style="endArrow=none;html=1;rounded=0;entryX=0.5;entryY=1;entryDx=0;entryDy=0;exitX=0.75;exitY=0;exitDx=0;exitDy=0;" parent="1" source="RsNDmuE6RZyaPZhk6_rx-1" target="RsNDmuE6RZyaPZhk6_rx-11" edge="1">
          <mxGeometry relative="1" as="geometry">
            <mxPoint x="930" y="149" as="sourcePoint" />
            <mxPoint x="1090" y="149" as="targetPoint" />
          </mxGeometry>
        </mxCell>
        <mxCell id="RsNDmuE6RZyaPZhk6_rx-18" value="N&lt;div&gt;&lt;br&gt;&lt;/div&gt;" style="text;html=1;strokeColor=none;fillColor=none;align=center;verticalAlign=middle;whiteSpace=wrap;rounded=0;" parent="1" vertex="1">
          <mxGeometry x="470" y="350" width="40" height="30" as="geometry" />
        </mxCell>
        <mxCell id="wAeKhKHjEiGhOYW7Zk4O-1" value="1" style="text;html=1;strokeColor=none;fillColor=none;align=center;verticalAlign=middle;whiteSpace=wrap;rounded=0;" parent="1" vertex="1">
          <mxGeometry x="460" y="270" width="40" height="20" as="geometry" />
        </mxCell>
        <mxCell id="wAeKhKHjEiGhOYW7Zk4O-3" value="&lt;div&gt;1&lt;/div&gt;&lt;div&gt;&lt;br&gt;&lt;/div&gt;" style="text;html=1;strokeColor=none;fillColor=none;align=center;verticalAlign=middle;whiteSpace=wrap;rounded=0;" parent="1" vertex="1">
          <mxGeometry x="375" y="700" width="60" height="10" as="geometry" />
        </mxCell>
        <mxCell id="wAeKhKHjEiGhOYW7Zk4O-4" value="Has" style="shape=rhombus;perimeter=rhombusPerimeter;whiteSpace=wrap;html=1;align=center;" parent="1" vertex="1">
          <mxGeometry x="270" y="650" width="120" height="60" as="geometry" />
        </mxCell>
        <mxCell id="wAeKhKHjEiGhOYW7Zk4O-5" value="&lt;div&gt;1&lt;/div&gt;&lt;div&gt;&lt;br&gt;&lt;/div&gt;" style="text;html=1;strokeColor=none;fillColor=none;align=center;verticalAlign=middle;whiteSpace=wrap;rounded=0;" parent="1" vertex="1">
          <mxGeometry x="230" y="700" width="60" height="10" as="geometry" />
        </mxCell>
        <mxCell id="wAeKhKHjEiGhOYW7Zk4O-10" value="" style="endArrow=none;html=1;rounded=0;shape=link;exitX=0;exitY=0.5;exitDx=0;exitDy=0;entryX=1;entryY=0.5;entryDx=0;entryDy=0;" parent="1" source="wAeKhKHjEiGhOYW7Zk4O-4" target="8CpBQVgdeGT6YSg92gqI-85" edge="1">
          <mxGeometry width="50" height="50" relative="1" as="geometry">
            <mxPoint x="250" y="679.38" as="sourcePoint" />
            <mxPoint x="160" y="679.38" as="targetPoint" />
            <Array as="points" />
          </mxGeometry>
        </mxCell>
        <mxCell id="wAeKhKHjEiGhOYW7Zk4O-13" value="&lt;div&gt;1&lt;/div&gt;&lt;div&gt;&lt;br&gt;&lt;/div&gt;" style="text;html=1;strokeColor=none;fillColor=none;align=center;verticalAlign=middle;whiteSpace=wrap;rounded=0;" parent="1" vertex="1">
          <mxGeometry x="340" y="420" width="60" height="20" as="geometry" />
        </mxCell>
        <mxCell id="wAeKhKHjEiGhOYW7Zk4O-16" value="manager&amp;nbsp; ID" style="ellipse;whiteSpace=wrap;html=1;align=center;" parent="1" vertex="1">
          <mxGeometry x="555" y="510" width="100" height="40" as="geometry" />
        </mxCell>
        <mxCell id="wAeKhKHjEiGhOYW7Zk4O-17" value="" style="endArrow=none;html=1;rounded=0;exitX=0.75;exitY=0;exitDx=0;exitDy=0;" parent="1" source="8CpBQVgdeGT6YSg92gqI-56" edge="1">
          <mxGeometry width="50" height="50" relative="1" as="geometry">
            <mxPoint x="520" y="590" as="sourcePoint" />
            <mxPoint x="570" y="540" as="targetPoint" />
          </mxGeometry>
        </mxCell>
        <mxCell id="wAeKhKHjEiGhOYW7Zk4O-20" value="" style="endArrow=none;html=1;rounded=0;shape=link;exitX=0.5;exitY=1;exitDx=0;exitDy=0;entryX=1;entryY=0.5;entryDx=0;entryDy=0;" parent="1" source="8CpBQVgdeGT6YSg92gqI-56" target="wAeKhKHjEiGhOYW7Zk4O-4" edge="1">
          <mxGeometry width="50" height="50" relative="1" as="geometry">
            <mxPoint x="515" y="679.38" as="sourcePoint" />
            <mxPoint x="420" y="690" as="targetPoint" />
            <Array as="points">
              <mxPoint x="490" y="680" />
            </Array>
          </mxGeometry>
        </mxCell>
        <mxCell id="wAeKhKHjEiGhOYW7Zk4O-21" value="" style="endArrow=none;html=1;rounded=0;shape=link;exitX=0;exitY=0.5;exitDx=0;exitDy=0;entryX=0.5;entryY=1;entryDx=0;entryDy=0;" parent="1" source="8CpBQVgdeGT6YSg92gqI-56" target="8CpBQVgdeGT6YSg92gqI-126" edge="1">
          <mxGeometry width="50" height="50" relative="1" as="geometry">
            <mxPoint x="435" y="579.38" as="sourcePoint" />
            <mxPoint x="310" y="579.38" as="targetPoint" />
            <Array as="points">
              <mxPoint x="340" y="580" />
            </Array>
          </mxGeometry>
        </mxCell>
        <mxCell id="wAeKhKHjEiGhOYW7Zk4O-26" value="" style="endArrow=none;html=1;rounded=0;shape=link;exitX=0;exitY=1;exitDx=0;exitDy=0;entryX=1;entryY=0.5;entryDx=0;entryDy=0;" parent="1" source="8CpBQVgdeGT6YSg92gqI-2" target="_dLto8AkK9XteF-ZZWOW-3" edge="1">
          <mxGeometry width="50" height="50" relative="1" as="geometry">
            <mxPoint x="322.5" y="344.17" as="sourcePoint" />
            <mxPoint x="197.5" y="344.17" as="targetPoint" />
            <Array as="points">
              <mxPoint x="310" y="340" />
            </Array>
          </mxGeometry>
        </mxCell>
        <mxCell id="wAeKhKHjEiGhOYW7Zk4O-28" value="&lt;div&gt;1&lt;/div&gt;&lt;div&gt;&lt;br&gt;&lt;/div&gt;" style="text;html=1;strokeColor=none;fillColor=none;align=center;verticalAlign=middle;whiteSpace=wrap;rounded=0;" parent="1" vertex="1">
          <mxGeometry x="60" y="310" width="60" height="10" as="geometry" />
        </mxCell>
        <mxCell id="wAeKhKHjEiGhOYW7Zk4O-29" value="reason" style="ellipse;whiteSpace=wrap;html=1;align=center;" parent="1" vertex="1">
          <mxGeometry x="-80" y="100" width="100" height="40" as="geometry" />
        </mxCell>
        <mxCell id="wAeKhKHjEiGhOYW7Zk4O-30" value="" style="endArrow=none;html=1;rounded=0;entryX=0;entryY=0.5;entryDx=0;entryDy=0;exitX=1;exitY=0;exitDx=0;exitDy=0;" parent="1" source="8CpBQVgdeGT6YSg92gqI-33" target="wAeKhKHjEiGhOYW7Zk4O-29" edge="1">
          <mxGeometry relative="1" as="geometry">
            <mxPoint x="-100" y="148" as="sourcePoint" />
            <mxPoint x="-80" y="80" as="targetPoint" />
          </mxGeometry>
        </mxCell>
      </root>
    </mxGraphModel>
  </diagram>
</mxfile>
